<mxfile host="app.diagrams.net" modified="2022-09-20T17:31:25.871Z" agent="5.0 (X11; Linux x86_64) AppleWebKit/537.36 (KHTML, like Gecko) Chrome/105.0.0.0 Safari/537.36" etag="jqa9kx_VFldOmZ2YAxTu" version="20.3.3" type="github">
  <diagram name="Page-1" id="822b0af5-4adb-64df-f703-e8dfc1f81529">
    <mxGraphModel dx="256" dy="847" grid="1" gridSize="10" guides="1" tooltips="1" connect="1" arrows="1" fold="1" page="1" pageScale="1" pageWidth="1100" pageHeight="850" background="none" math="0" shadow="0">
      <root>
        <mxCell id="0" />
        <mxCell id="1" parent="0" />
        <mxCell id="7d933b09d9755ecc-19" value="" style="ellipse;whiteSpace=wrap;html=1;rounded=0;shadow=0;comic=0;strokeWidth=1;fontFamily=Verdana;" parent="1" vertex="1">
          <mxGeometry x="1130" y="30" width="150" height="100" as="geometry" />
        </mxCell>
        <mxCell id="7d933b09d9755ecc-20" value="Users" style="verticalLabelPosition=bottom;aspect=fixed;html=1;verticalAlign=top;strokeColor=none;shape=mxgraph.citrix.users;rounded=0;shadow=0;comic=0;fontFamily=Verdana;" parent="1" vertex="1">
          <mxGeometry x="1168.75" y="43" width="69.78" height="59.5" as="geometry" />
        </mxCell>
        <mxCell id="1L-tN5xIMdpYua0xgU2k-2" value="" style="rhombus;whiteSpace=wrap;html=1;" vertex="1" parent="1">
          <mxGeometry x="1550" y="325" width="200" height="200" as="geometry" />
        </mxCell>
        <mxCell id="1L-tN5xIMdpYua0xgU2k-8" value="&lt;font style=&quot;font-size: 15px;&quot;&gt;Панель&lt;br&gt;управления&lt;/font&gt;" style="text;html=1;strokeColor=none;fillColor=none;align=center;verticalAlign=middle;whiteSpace=wrap;rounded=0;strokeWidth=7;" vertex="1" parent="1">
          <mxGeometry x="1590" y="410" width="120" height="30" as="geometry" />
        </mxCell>
        <mxCell id="1L-tN5xIMdpYua0xgU2k-27" value="" style="rounded=0;whiteSpace=wrap;html=1;strokeWidth=1;fontSize=19;" vertex="1" parent="1">
          <mxGeometry x="1400" y="160" width="120" height="60" as="geometry" />
        </mxCell>
      </root>
    </mxGraphModel>
  </diagram>
</mxfile>
